HIERARCHY
ROOT Hips
{
	OFFSET 0.000000 0.000000 0.000000 
	CHANNELS 6 Xposition Yposition Zposition Zrotation Yrotation Xrotation
	JOINT LeftUpLeg
	{
		OFFSET 1.363060 -1.794630 0.839290 
		CHANNELS 3 Zrotation Yrotation Xrotation
		JOINT LeftLeg
		{
			OFFSET 2.448110 -6.726130 0.000000 
			CHANNELS 3 Zrotation Yrotation Xrotation
			JOINT LeftFoot
			{
				OFFSET 2.562200 -7.039590 0.000000 
				CHANNELS 3 Zrotation Yrotation Xrotation
				JOINT LeftToeBase
				{
					OFFSET 0.157640 -0.433110 2.322550 
					CHANNELS 3 Zrotation Yrotation Xrotation
					End Site
					{
						OFFSET 0.000000 0.000000 0.000000 
					}
				}
			}
		}
	}
	JOINT RightUpLeg
	{
		OFFSET -1.305520 -1.794630 0.839290 
		CHANNELS 3 Zrotation Yrotation Xrotation
		JOINT RightLeg
		{
			OFFSET -2.542530 -6.985550 0.000000 
			CHANNELS 3 Zrotation Yrotation Xrotation
			JOINT RightFoot
			{
				OFFSET -2.568260 -7.056230 0.000000 
				CHANNELS 3 Zrotation Yrotation Xrotation
				JOINT RightToeBase
				{
					OFFSET -0.164730 -0.452590 2.363150 
					CHANNELS 3 Zrotation Yrotation Xrotation
					End Site
					{
						OFFSET 0.000000 0.000000 0.000000 
					}
				}
			}
		}
	}
	JOINT Spine
	{
		OFFSET 0.028270 2.035590 -0.193380 
		CHANNELS 3 Zrotation Yrotation Xrotation
		JOINT Spine1
		{
			OFFSET 0.056720 2.048850 -0.042750 
			CHANNELS 3 Zrotation Yrotation Xrotation
			JOINT Neck1
			{
				OFFSET -0.054170 1.746240 0.172020 
				CHANNELS 3 Zrotation Yrotation Xrotation
				JOINT Head
				{
					OFFSET 0.104070 1.761360 -0.123970 
					CHANNELS 3 Zrotation Yrotation Xrotation
					End Site
					{
						OFFSET 0.000000 0.000000 0.000000 
					}
				}
			}
			JOINT LeftArm
			{
				OFFSET 3.362410 1.200890 -0.311210 
				CHANNELS 3 Zrotation Yrotation Xrotation
				JOINT LeftForeArm
				{
					OFFSET 4.983000 -0.000000 -0.000000 
					CHANNELS 3 Zrotation Yrotation Xrotation
					JOINT LeftHand
					{
						OFFSET 3.483560 -0.000000 -0.000000 
						CHANNELS 3 Zrotation Yrotation Xrotation
						JOINT LeftHandIndex1
						{
							OFFSET 0.715260 -0.000000 -0.000000 
							CHANNELS 3 Zrotation Yrotation Xrotation
							End Site
							{
								OFFSET 0.000000 0.000000 0.000000 
							}
						}
					}
				}
			}
			JOINT RightArm
			{
				OFFSET -3.136600 1.374050 -0.404650 
				CHANNELS 3 Zrotation Yrotation Xrotation
				JOINT RightForeArm
				{
					OFFSET -5.241900 -0.000000 -0.000000 
					CHANNELS 3 Zrotation Yrotation Xrotation
					JOINT RightHand
					{
						OFFSET -3.444170 -0.000000 -0.000000 
						CHANNELS 3 Zrotation Yrotation Xrotation
						JOINT RightHandIndex1
						{
							OFFSET -0.622530 -0.000000 -0.000000 
							CHANNELS 3 Zrotation Yrotation Xrotation
							End Site
							{
								OFFSET 0.000000 0.000000 0.000000 
							}
						}
					}
				}
			}
		}
	}
}
MOTION
Frames: 6
Frame Time: 0.041667
-0.372985 17.967112 -1.905948 -11.302968 -79.782696 18.257288 -13.643011 -2.871913 -19.442105 2.260225 11.547050 35.615136 0.851278 -19.308340 12.611433 0.492500 -4.499400 -12.486100 20.071469 7.384580 -31.195028 -4.666001 -14.416140 44.312983 -0.651536 3.953229 3.084466 -2.531900 9.895600 -28.639300 2.857668 2.881404 3.059218 -1.440003 1.373102 -5.615998 4.976596 -4.711450 18.622916 0.199000 -1.805200 3.359800 -61.244716 25.957417 -30.448686 158.662415 -26.846088 -115.559925 0.303311 -0.527486 -2.283470 -7.125000 0.000000 0.000000 74.770887 -9.489952 23.505292 -38.910990 43.458292 -18.073423 1.083941 0.172381 20.797941 7.125000 0.000000 0.000000 
-0.485199 17.933358 -1.942789 -9.011080 -78.929398 16.329592 -13.665405 -2.337109 -20.997460 2.960690 12.374747 38.421913 0.685450 -20.363140 12.520576 1.038800 -6.482100 -18.189800 20.542361 6.185101 -30.331185 -4.298699 -13.961286 42.860525 -0.869369 5.381375 2.072004 -1.305300 7.237500 -20.420800 2.697098 2.601319 3.007300 -1.720808 1.265015 -5.340445 5.162904 -4.802522 18.807177 0.286200 -1.841700 3.526500 -61.154890 25.906412 -31.534148 158.209753 -27.393788 -115.357954 0.297494 -0.560486 -2.656834 -7.125000 0.000000 0.000000 75.326448 -9.425523 22.859313 -36.957080 42.204983 -16.609603 1.144615 0.188159 20.503703 7.125000 0.000000 0.000000 
-0.556690 17.841456 -2.006513 -7.442768 -78.390015 15.176139 -13.704259 -2.136403 -23.111834 4.030612 13.493947 42.439140 0.537628 -20.254036 11.498367 1.351800 -7.360100 -20.786700 20.843217 6.323261 -29.638019 -3.996873 -13.625543 41.667530 -0.782955 3.962433 -1.192879 -1.622600 8.031200 -22.808800 2.512888 2.604858 2.776081 -1.946935 1.280969 -5.534814 5.435602 -4.991124 18.846811 0.403300 -1.930900 3.619100 -60.171006 25.820737 -32.555922 157.634111 -28.072441 -115.108674 0.272476 -0.588327 -3.583617 -7.125000 0.000000 0.000000 75.993538 -9.496425 22.264132 -35.053405 40.894090 -15.219622 1.212028 0.217563 19.519035 7.125000 0.000000 0.000000 
-0.628778 17.733423 -2.061973 -6.806018 -77.551861 14.865399 -13.585565 -2.539740 -25.160078 5.474671 14.781495 47.497527 0.423727 -18.863192 9.804735 1.046700 -6.506000 -18.259900 21.075458 6.746855 -28.973422 -3.778553 -13.373740 40.814423 -0.731206 2.910311 -3.792398 -1.537000 7.826500 -22.188200 2.448666 2.583088 2.518982 -2.162759 1.271021 -5.703373 5.573066 -5.173643 19.030446 0.510200 -2.025300 3.760600 -58.842404 25.637327 -33.315454 156.937022 -28.890250 -114.796207 0.248964 -0.626697 -4.322029 -7.125000 0.000000 0.000000 76.406252 -9.824354 21.961818 -33.351037 39.651816 -14.008737 1.273290 0.258842 17.876372 7.125000 0.000000 0.000000 
-0.696285 17.645404 -2.109069 -5.817767 -76.609991 13.903806 -13.436138 -3.677158 -26.618985 7.437838 16.185594 53.695443 0.520487 -17.982824 3.077289 1.666000 -8.132800 -23.118100 21.009701 7.160532 -28.178356 -3.652175 -13.204497 40.303232 -0.761452 2.361468 -6.061404 -1.422600 7.542600 -21.333200 2.501918 2.574120 2.265976 -2.172974 1.261146 -6.030949 5.496757 -5.327007 19.276620 0.586300 -2.122800 3.886200 -57.542760 25.428398 -33.668793 156.259841 -29.683472 -114.477080 0.252959 -0.663641 -4.870175 -7.125000 0.000000 0.000000 76.390039 -10.352273 22.011557 -31.745844 38.414925 -12.892359 1.324095 0.308965 15.809904 7.125000 0.000000 0.000000 
-0.746767 17.558481 -2.154970 -5.019540 -75.888072 12.726210 -13.200684 -5.332151 -27.735435 9.703460 17.459373 60.610624 0.582081 -17.903962 -1.741235 1.307800 -7.244100 -20.440700 21.026153 7.334293 -27.327909 -3.581319 -13.086043 40.005994 -0.805529 2.013786 -7.733531 -1.138200 6.775200 -19.051000 2.639652 2.735371 2.109566 -2.023253 1.333825 -6.489206 5.329740 -5.545949 19.446514 0.635300 -2.263000 3.952800 -56.431746 24.963100 -33.793979 155.635373 -30.401074 -114.176450 0.256800 -0.692200 -5.512505 -7.125000 0.000000 0.000000 76.079727 -10.775453 22.271319 -30.130072 37.094068 -11.794772 1.365974 0.359736 13.635643 7.125000 0.000000 0.000000 
